#!OML:ASF E:\id_vita\Project 1\Capture day 1\Session 1\Female.ASF
:FULLY-SPECIFIED
:DEGREES
707
root -23.5079 16.3442 0.611004 370.709 -177.589 -358.115
lowerback -12.9155 1.29482 -0.859095
upperback -3.95823 1.26175 2.19317
thorax 3.00925 0.428225 2.9562
lowerneck 16.8263 2.2551 -0.983292
upperneck -30.4213 0.598096 -1.94536
head -12.9717 0.00545958 -0.533019
rclavicle 1.95554e-014 2.46493e-014
rhumerus -37.657 -33.2796 -70.6896
rradius 16.7365
rwrist 27.2775
rhand -15.4055 11.3531
rfingers 7.12502
rthumb 10.7736 -18.3506
lclavicle 1.95554e-014 2.46493e-014
lhumerus -46.3384 40.2971 62.561
lradius 17.1153
lwrist -49.9504
lhand -3.86099 20.549
lfingers 7.12502
lthumb 21.8874 49.331
rfemur -25.0682 -1.38304 15.8566
rtibia 33.0614
rfoot -7.15303 -11.3022
rtoes -22.5216
lfemur -16.6128 -4.23553 -21.3939
ltibia 27.3242
lfoot -26.1276 4.59683
ltoes 5.52588
708
root -23.5148 16.3427 0.618055 370.798 -177.631 -358.185
lowerback -12.9926 1.31355 -0.942029
upperback -3.98796 1.29573 2.14212
thorax 3.01704 0.443581 2.95619
lowerneck 16.6758 2.2325 -1.1191
upperneck -30.3977 0.577418 -1.75815
head -12.9322 -0.0169458 -0.431995
rclavicle 2.23633e-015 -2.0276e-014
rhumerus -37.4659 -32.9294 -71.0929
rradius 16.78
rwrist 27.3688
rhand -15.7068 11.1304
rfingers 7.12502
rthumb 10.483 -18.5882
lclavicle 2.23633e-015 -2.0276e-014
lhumerus -49.126 43.1389 58.4452
lradius 16.0858
lwrist -54.3791
lhand -3.46681 20.2737
lfingers 7.12502
lthumb 22.2659 49.011
rfemur -25.2223 -1.80505 15.784
rtibia 33.0672
rfoot -7.14978 -10.82
rtoes -21.7192
lfemur -16.7549 -4.24451 -21.4896
ltibia 27.3699
lfoot -26.1886 4.52746
ltoes 6.13576
709
root -23.522 16.3475 0.624457 370.841 -177.674 -358.227
lowerback -13.0476 1.28382 -1.05976
upperback -4.01011 1.26614 2.16576
thorax 3.02161 0.427201 3.04418
lowerneck 16.5979 2.17739 -1.37285
upperneck -30.4164 0.486688 -1.50375
head -12.9274 -0.0665677 -0.274007
rclavicle 2.47238e-014 -4.77083e-015
rhumerus -37.1358 -31.9835 -71.8692
rradius 16.9286
rwrist 26.9577
rhand -16.3185 10.4119
rfingers 7.12502
rthumb 9.89293 -19.3356
lclavicle 2.47238e-014 -4.77083e-015
lhumerus -50.8483 43.9641 56.4359
lradius 15.4009
lwrist -55.9043
lhand -3.72377 20.4939
lfingers 7.12502
lthumb 22.0192 49.2604
rfemur -25.3139 -1.51375 15.6398
rtibia 33.144
rfoot -6.97462 -10.9227
rtoes -21.3882
lfemur -16.7547 -4.28893 -21.5619
ltibia 27.2603
lfoot -26.1617 4.59498
ltoes 6.54372
710
root -23.5275 16.351 0.628677 370.819 -177.738 -358.317
lowerback -13.0689 1.22815 -1.24976
upperback -3.99812 1.21772 2.18241
thorax 3.04324 0.403614 3.16275
lowerneck 15.9729 2.24423 -0.854866
upperneck -29.869 0.582034 -2.1693
head -12.5619 0.0095228 -0.629428
rclavicle -6.36111e-015 1.59028e-014
rhumerus -36.7575 -31.1944 -72.4433
rradius 16.9379
rwrist 26.3039
rhand -16.3971 10.5144
rfingers 7.12502
rthumb 9.81709 -19.2368
lclavicle -6.36111e-015 1.59028e-014
lhumerus -56.5314 48.2618 48.7416
lradius 14.4599
lwrist -62.7358
lhand -4.19176 20.052
lfingers 7.12502
lthumb 21.5698 48.8708
rfemur -25.3909 -1.63954 15.5096
rtibia 33.2975
rfoot -7.0317 -10.7493
rtoes -20.9435
lfemur -16.6545 -4.27108 -21.6946
ltibia 27.1352
lfoot -26.0933 4.66849
ltoes 6.66882
711
root -23.5365 16.3512 0.636637 370.796 -177.873 -358.415
lowerback -12.9409 1.25424 -1.36513
upperback -4.03522 1.26888 2.15096
thorax 2.9293 0.4311 3.19922
lowerneck 15.8153 2.2937 -0.754774
upperneck -29.8275 0.633063 -2.31379
head -12.5096 0.0358499 -0.707503
rclavicle 1.69464e-014 1.86858e-014
rhumerus -36.5089 -30.6952 -72.76
rradius 16.9533
rwrist 25.9627
rhand -16.2806 10.5571
rfingers 7.12502
rthumb 9.92941 -19.1888
lclavicle 1.69464e-014 1.86858e-014
lhumerus -60.7143 50.1684 43.503
lradius 13.9275
lwrist -66.9533
lhand -3.72736 20.1573
lfingers 7.12502
lthumb 22.0157 48.9242
rfemur -25.4884 -1.93721 15.391
rtibia 33.4007
rfoot -7.00627 -10.3622
rtoes -21.0997
lfemur -16.5789 -4.26935 -21.8585
ltibia 27.0159
lfoot -25.9997 4.7295
ltoes 6.96489
712
root -23.5433 16.351 0.640295 370.847 -177.902 -358.496
lowerback -13.0453 1.2507 -1.44501
upperback -4.02062 1.2795 2.07674
thorax 3.00027 0.435886 3.17104
lowerneck 15.8865 2.2983 -0.598019
upperneck -30.0474 0.631131 -2.37389
head -12.612 0.0150179 -0.757295
rclavicle -4.19933e-015 -1.98785e-015
rhumerus -36.2382 -30.3404 -73.2832
rradius 17.0368
rwrist 26.2804
rhand -16.6239 10.1763
rfingers 7.12502
rthumb 9.5982 -19.585
lclavicle -4.19933e-015 -1.98785e-015
lhumerus -67.893 53.1295 34.2471
lradius 13.3824
lwrist -73.6227
lhand -3.08841 20.2458
lfingers 7.12502
lthumb 22.6291 48.9393
rfemur -25.612 -2.10373 15.2783
rtibia 33.4916
rfoot -6.95726 -10.0989
rtoes -21.7127
lfemur -16.606 -4.46541 -21.9718
ltibia 26.9663
lfoot -25.9054 4.91414
ltoes 7.19749
713
root -23.5499 16.3463 0.645928 370.748 -178.022 -358.533
lowerback -12.9047 1.30976 -1.40052
upperback -4.04386 1.3613 1.95008
thorax 2.89903 0.479664 3.02145
lowerneck 15.9556 2.26776 -0.435713
upperneck -30.0974 0.645229 -2.34359
head -12.6447 -0.00043032 -0.776926
rclavicle -6.58474e-015 0
rhumerus -36.4471 -30.6972 -73.3055
rradius 17.2749
rwrist 27.5101
rhand -16.7305 9.83173
rfingers 7.12502
rthumb 9.49539 -19.9343
lclavicle -6.58474e-015 0
lhumerus -71.7478 53.7992 29.2842
lradius 12.7743
lwrist -76.7639
lhand -2.86621 20.5493
lfingers 7.12502
lthumb 22.8424 49.2166
rfemur -25.5871 -2.21689 15.1816
rtibia 33.5525
rfoot -6.9128 -9.81458
rtoes -21.884
lfemur -16.5007 -4.67352 -22.0654
ltibia 26.9889
lfoot -25.8526 5.25786
ltoes 6.96241
714
root -23.5563 16.3453 0.651694 370.759 -178.07 -358.503
lowerback -12.837 1.34096 -1.33041
upperback -4.11753 1.38802 1.91924
thorax 2.78639 0.491821 2.95046
lowerneck 15.9667 2.25971 -0.467311
upperneck -30.1424 0.621459 -2.32277
head -12.6664 -0.0122313 -0.759827
rclavicle -2.2239e-014 -3.22031e-014
rhumerus -36.8648 -31.6148 -72.6369
rradius 17.5325
rwrist 29.8519
rhand -16.0501 9.06079
rfingers 7.12502
rthumb 10.1518 -20.6743
lclavicle -2.2239e-014 -3.22031e-014
lhumerus -81.4198 55.4832 17.4271
lradius 12.3091
lwrist -83.7877
lhand -3.16859 20.5781
lfingers 7.12502
lthumb 22.5522 49.2809
rfemur -25.6658 -2.56064 15.2373
rtibia 33.5886
rfoot -6.90592 -9.47479
rtoes -21.5382
lfemur -16.5445 -4.73717 -22.067
ltibia 27.0402
lfoot -25.8025 5.42412
ltoes 6.7076
715
root -23.5625 16.3482 0.658598 370.884 -178.088 -358.312
lowerback -12.9958 1.36127 -1.18644
upperback -4.13409 1.38144 2.02341
thorax 2.85688 0.482841 2.98074
lowerneck 15.9286 2.21847 -0.484466
upperneck -30.3345 0.448659 -2.49396
head -12.7399 -0.0797761 -0.793944
rclavicle -2.09966e-014 -4.41302e-014
rhumerus -36.3552 -30.8735 -73.165
rradius 17.2373
rwrist 28.733
rhand -16.9463 9.13334
rfingers 7.12502
rthumb 9.28719 -20.6421
lclavicle -2.09966e-014 -4.41302e-014
lhumerus -85.6166 55.5282 12.5314
lradius 12.0491
lwrist -86.3901
lhand -3.46741 21.3664
lfingers 7.12502
lthumb 22.2653 50.1038
rfemur -25.8921 -2.79085 15.496
rtibia 33.6308
rfoot -6.95542 -9.26876
rtoes -21.5802
lfemur -16.7328 -4.74466 -21.873
ltibia 27.0999
lfoot -25.6789 5.57306
ltoes 6.67091
716
root -23.5673 16.3499 0.664081 370.924 -178.088 -358.139
lowerback -13.0851 1.39247 -1.04588
upperback -4.1473 1.39647 2.06178
thorax 2.89358 0.48687 2.94561
lowerneck 15.9482 2.15889 -0.42915
upperneck -30.4507 0.326409 -2.57187
head -12.7933 -0.137163 -0.814112
rclavicle 7.1314e-015 -3.18055e-015
rhumerus -36.5966 -30.5943 -73.3946
rradius 18.0497
rwrist 28.1749
rhand -16.6002 8.92911
rfingers 7.12502
rthumb 9.62112 -20.8312
lclavicle 7.1314e-015 -3.18055e-015
lhumerus -101.809 55.1938 -7.05286
lradius 11.839
lwrist -97.9375
lhand -3.62784 20.829
lfingers 7.12502
lthumb 22.1113 49.5847
rfemur -26.0284 -2.88136 15.6994
rtibia 33.6972
rfoot -6.9759 -9.17222
rtoes -21.582
lfemur -16.8203 -4.72661 -21.709
ltibia 27.1488
lfoot -25.5992 5.59291
ltoes 7.05154
